<?xml version="1.0" encoding="utf-8"?>
<!-- Generator: Adobe Illustrator 27.5.0, SVG Export Plug-In . SVG Version: 6.00 Build 0)  -->
<svg version="1.1" xmlns="http://www.w3.org/2000/svg" xmlns:xlink="http://www.w3.org/1999/xlink" x="0px" y="0px"
	 viewBox="0 0 500 500" style="enable-background:new 0 0 500 500;" xml:space="preserve">
<g id="BACKGROUND">
	<rect x="0" style="fill:#FFFFFF;" width="500" height="500"/>
</g>
<g id="OBJECTS">
	<g>
		<g>
			<g>
				
					<text transform="matrix(1 0 0 1 36.4026 204.6796)" style="fill:#026490; font-family:'Montserrat-ExtraBold'; font-size:39.4706px;">Travel</text>
			</g>
			<g>
				
					<text transform="matrix(1 0 0 1 76.8539 222.8642)" style="fill:#026490; font-family:'Montserrat-Regular'; font-size:15.423px; letter-spacing:3;">agency</text>
			</g>
		</g>
		<g>
			<g>
				<path style="fill:#FFCC23;" d="M119.468,127.386c24.825,0,46.528-13.326,58.375-33.208
					c-7.001-25.674-30.481-44.551-58.375-44.551c-27.893,0-51.374,18.877-58.375,44.551
					C72.94,114.061,94.642,127.386,119.468,127.386z"/>
			</g>
			<g>
				<defs>
					<path id="SVGID_1_" d="M119.468,127.386c24.825,0,46.528-13.326,58.375-33.208c-7.001-25.674-30.481-44.551-58.375-44.551
						c-27.893,0-51.374,18.877-58.375,44.551C72.94,114.061,94.642,127.386,119.468,127.386z"/>
				</defs>
				<clipPath id="SVGID_00000119080478625471433120000001335125897196952457_">
					<use xlink:href="#SVGID_1_"  style="overflow:visible;"/>
				</clipPath>
				<g style="clip-path:url(#SVGID_00000119080478625471433120000001335125897196952457_);">
					<path style="fill:#FFFFFF;" d="M108.652,74.246c0,0-29.32,23.976-31.019,63.145h8.97c0,0,0.528-40.448,25.06-62.92
						L108.652,74.246z"/>
					<path style="fill:#FFFFFF;" d="M109.509,43.298V54.3l4.26,1.063l-4.26,1.063v5.236l4.26,1.063l-4.26,1.063v11.153
						c5.131,0,9.262-7.084,9.262-15.823S114.639,43.298,109.509,43.298z"/>
					<path style="fill:#FFFFFF;" d="M87.132,52.566l7.78,7.78l3.764-2.261l-2.26,3.765l3.702,3.702l3.764-2.261l-2.26,3.765
						l7.886,7.886c3.628-3.628,1.54-11.558-4.639-17.737S90.76,48.938,87.132,52.566z"/>
					<path style="fill:#FFFFFF;" d="M77.863,74.943h11.003l1.064-4.26l1.063,4.26h5.236l1.064-4.26l1.063,4.26h11.153
						c0-5.131-7.084-9.261-15.823-9.261S77.863,69.813,77.863,74.943z"/>
					<path style="fill:#FFFFFF;" d="M142.415,76.204h-11.003l-1.064-4.26l-1.063,4.26h-5.236l-1.063-4.26l-1.063,4.26h-11.153
						c0-5.131,7.084-9.262,15.823-9.262C135.331,66.942,142.415,71.073,142.415,76.204z"/>
					<path style="fill:#FFFFFF;" d="M133.146,98.581l-7.78-7.78l2.261-3.765l-3.765,2.261l-3.702-3.702l2.261-3.765l-3.765,2.261
						l-7.886-7.887c3.628-3.628,11.558-1.54,17.737,4.64S136.774,94.953,133.146,98.581z"/>
					<path style="fill:#FFFFFF;" d="M110.769,107.85V96.846l4.26-1.063l-4.26-1.063v-5.236l4.26-1.063l-4.26-1.063V76.204
						c5.131,0,9.262,7.084,9.262,15.823S115.9,107.85,110.769,107.85z"/>
				</g>
			</g>
			<g>
				<path style="fill:#FFFFFF;" d="M119.468,127.386c6.855,0,13.466-1.029,19.704-2.918c-2.852-8.135-10.594-13.971-19.704-13.971
					c-9.109,0-16.852,5.836-19.704,13.971C106.001,126.357,112.613,127.386,119.468,127.386z"/>
			</g>
			<path style="fill:#026490;" d="M119.468,148.253c-39.799,0-72.592-29.971-77.055-68.573c-0.342,2.955-0.523,5.958-0.523,9.005
				c0,42.845,34.733,77.578,77.578,77.578c42.845,0,77.578-34.733,77.578-77.578c0-3.046-0.182-6.05-0.523-9.005
				C192.059,118.282,159.266,148.253,119.468,148.253z"/>
			<path style="fill:#026490;" d="M119.468,127.386c-34.844,0-63.555-26.24-67.463-60.037c-0.299,2.587-0.458,5.217-0.458,7.884
				c0,37.512,30.409,67.921,67.921,67.921c37.512,0,67.921-30.409,67.921-67.921c0-2.667-0.159-5.297-0.458-7.884
				C183.023,101.146,154.312,127.386,119.468,127.386z"/>
		</g>
	</g>
	<g>
		<g>
			<g>
				
					<text transform="matrix(1 0 0 1 283.8548 204.6797)" style="fill:#026490; font-family:'Montserrat-ExtraBold'; font-size:39.4706px;">Travel</text>
			</g>
			<g>
				
					<text transform="matrix(1 0 0 1 324.3065 222.8643)" style="fill:#026490; font-family:'Montserrat-Regular'; font-size:15.423px; letter-spacing:3;">agency</text>
			</g>
		</g>
		<g>
			<circle style="fill:#FFCC23;" cx="366.92" cy="94.383" r="43.761"/>
			<path style="fill:#026490;" d="M447.534,130.551c-1.651-16.223-15.353-28.881-32.011-28.881c-1.985,0-3.924,0.189-5.809,0.533
				c-6.918-16.832-23.467-28.689-42.794-28.689s-35.876,11.856-42.794,28.689c-1.885-0.344-3.825-0.533-5.809-0.533
				c-16.658,0-30.36,12.658-32.011,28.881c-8.422,1.354-14.876,8.597-14.996,17.372c-0.137,9.956,8.327,18.104,18.284,18.104h52.862
				c9.281,0,16.805-7.524,16.805-16.805v-7.293l-40.189,11.422c-0.898,0.255-1.792-0.419-1.792-1.353l0,0
				c0-2.618,1.263-5.076,3.392-6.6l10.258-7.343v-3.985c0-1.67,1.354-3.023,3.023-3.023c1.56,0,2.829,1.186,2.991,2.703l7.215-5.165
				v-4.41c0-1.67,1.354-3.023,3.023-3.023c1.67,0,3.023,1.354,3.023,3.023v0.082l9.053-6.48v-11.084
				c0-6.756,1.864-13.382,5.387-19.147h0c1.038-1.699,3.506-1.699,4.544,0h0c3.523,5.765,5.387,12.39,5.387,19.147v11.084
				l9.053,6.48v-0.082c0-1.67,1.354-3.023,3.023-3.023s3.023,1.354,3.023,3.023v4.41l7.215,5.165
				c0.162-1.517,1.431-2.703,2.991-2.703c1.67,0,3.023,1.354,3.023,3.023v3.985l10.258,7.343c2.129,1.524,3.392,3.982,3.392,6.6l0,0
				c0,0.934-0.893,1.609-1.792,1.353l-40.189-11.422v7.293c0,9.281,7.524,16.805,16.805,16.805h52.862
				c9.957,0,18.422-8.147,18.285-18.103C462.409,139.148,455.956,131.905,447.534,130.551z"/>
		</g>
	</g>
	<g>
		<g>
			<g>
				
					<text transform="matrix(1 0 0 1 283.8548 428.1472)" style="fill:#026490; font-family:'Montserrat-ExtraBold'; font-size:39.4706px;">Travel</text>
			</g>
			<g>
				
					<text transform="matrix(1 0 0 1 324.3065 446.3318)" style="fill:#026490; font-family:'Montserrat-Regular'; font-size:15.423px; letter-spacing:3;">agency</text>
			</g>
		</g>
		<g>
			<g>
				<path style="fill:#FFCC23;" d="M417.034,348.687c-11.84,0-21.836,7.871-25.056,18.664c-0.001-0.002-0.001-0.004-0.001-0.006
					c-0.001,0.002-0.001,0.004-0.002,0.006c-3.219-10.793-13.216-18.664-25.056-18.664c-11.627,0-21.461,7.599-24.86,18.094
					c-0.052,0.189-0.092,0.383-0.148,0.57c-0.007-0.023-0.017-0.046-0.024-0.069c-0.007,0.023-0.017,0.045-0.024,0.069
					c-0.056-0.188-0.097-0.381-0.148-0.57c-3.399-10.495-13.233-18.094-24.86-18.094c-3.088,0-6.049,0.54-8.799,1.523
					c9.592,23.06,32.331,39.276,58.864,39.276c26.539,0,49.281-16.224,58.87-39.292
					C423.052,349.221,420.106,348.687,417.034,348.687z"/>
				<path style="fill:#026490;" d="M316.855,333.719c11.809,0,21.786,7.83,25.032,18.581c3.246-10.751,13.223-18.581,25.032-18.581
					c11.842,0,21.839,7.874,25.057,18.669c3.218-10.796,13.216-18.669,25.057-18.669c4.576,0,8.875,1.178,12.617,3.244
					c0.646-3.641,1.003-7.382,1.003-11.209c0-35.199-28.535-63.734-63.734-63.734s-63.734,28.535-63.734,63.734
					c0,3.836,0.358,7.586,1.008,11.235C307.945,334.908,312.261,333.719,316.855,333.719z"/>
			</g>
			<g>
				<path style="fill:#FFFFFF;" d="M402.127,281.322c1.573,0.158,2.07,2.208,0.748,3.075l-53.3,34.97
					c-9.552,6.267-19.249,7.013-26.369,6.388c-1.473-0.129-1.944-2.058-0.708-2.869l57.059-37.436
					C386.822,280.684,396.548,280.762,402.127,281.322z"/>
				<path style="fill:#FFFFFF;" d="M369.952,293.73l-29.36-2.627c-1.61-0.144-3.221,0.26-4.572,1.147l-2.331,1.529l20.495,10.297
					L369.952,293.73z"/>
				<path style="fill:#FFFFFF;" d="M373.199,301.394l6.256,9.535c1.207,1.839,1.502,4.131,0.802,6.217l-0.297,0.885l-19.563-11.205
					L373.199,301.394z"/>
				<polygon style="fill:#FFFFFF;" points="339.246,313.877 328.406,309.117 324.645,311.585 330.771,320.922 				"/>
			</g>
		</g>
	</g>
	<g>
		<g>
			<g>
				<path style="fill:#FFCC23;" d="M105.398,335.754l-50.532-28.166c-1.13-0.63-1.344-2.165-0.429-3.079
					c2.564-2.564,6.207-3.733,9.784-3.141l17.234,2.855l3.902-3.902c1.635-1.635,4.286-1.635,5.92,0h0
					c1.527,1.528,1.609,3.931,0.282,5.576l12.121,2.008l4.318-4.318c1.635-1.635,4.286-1.635,5.921,0
					c1.635,1.635,1.635,4.286,0,5.921l-0.08,0.08l15.209,2.519l9.325-9.325l-28.482-28.482c-14.582-14.582-38.223-14.582-52.804,0
					l0,0c-14.582,14.581-14.582,38.223,0,52.804l28.482,28.482L105.398,335.754z"/>
				<path style="fill:#FFCC23;" d="M153.369,317.78l-9.325,9.325l2.519,15.209l0.08-0.08c1.635-1.635,4.286-1.635,5.921,0
					c1.635,1.635,1.635,4.285,0,5.921l-4.318,4.318l1.171,7.066l22.856-22.856L153.369,317.78z"/>
				<polygon style="fill:#FFCC23;" points="120.396,350.753 100.565,370.584 119.468,389.487 133.927,375.028 				"/>
			</g>
			<g>
				<polygon style="fill:#026490;" points="81.122,322.224 66.663,336.683 85.566,355.586 105.398,335.754 				"/>
				<path style="fill:#026490;" d="M181.851,274.299L181.851,274.299c-14.581-14.582-38.223-14.582-52.804,0l-32.435,32.435
					l7.066,1.171l4.318-4.318c1.635-1.635,4.286-1.635,5.921,0c1.635,1.635,1.635,4.286,0,5.921l-0.08,0.08l15.209,2.519
					l10.853-10.853c6.615-6.615,14.927-11.277,24.021-13.472c2.68-0.647,5.096,1.769,4.449,4.449
					c-2.195,9.094-6.857,17.406-13.472,24.021l-10.853,10.853l2.519,15.209l0.08-0.08c1.635-1.635,4.286-1.635,5.921,0
					c1.635,1.635,1.635,4.285,0,5.921l-4.318,4.318l1.171,7.066l32.435-32.435C196.433,312.522,196.433,288.88,181.851,274.299z"/>
				<polygon style="fill:#026490;" points="120.396,350.753 100.565,370.584 119.468,389.487 133.927,375.028 				"/>
			</g>
		</g>
		<g>
			<g>
				
					<text transform="matrix(1 0 0 1 36.4026 428.1471)" style="fill:#026490; font-family:'Montserrat-ExtraBold'; font-size:39.4706px;">Travel</text>
			</g>
			<g>
				
					<text transform="matrix(1 0 0 1 76.8539 446.3316)" style="fill:#026490; font-family:'Montserrat-Regular'; font-size:15.423px; letter-spacing:3;">agency</text>
			</g>
		</g>
	</g>
</g>
</svg>
